# xmcd
#
# Track frame offsets:
#	150
#	15320
#	35124
#	48931
#	64550
#	77077
#	89483
#	104862
#	119740
#	133802
#	148068
#	160521
#	178486
#
# Disc length: 2572 seconds
# Revision: 0
# Processed by: cddbd v1.5.2PL0 Copyright (c) Steve Scherf et al.
# Submitted via: dBpowerAMP V12.0
#
DISCID=bc0a0a0d
DTITLE=Michelle Nixon and Drive - A Place I Belong
DYEAR=2011
DGENRE=Bluegrass
TTITLE0=Your Kind of Love
TTITLE1=Small Town Way
TTITLE2=Last Road
TTITLE3=Too BLue
TTITLE4=Making Memories Without You
TTITLE5=Brand New City
TTITLE6=Top of the World
TTITLE7=A Place I Belong
TTITLE8=Better Days
TTITLE9=Is it Still Over
TTITLE10=Muddy Water
TTITLE11=Where Do We Go From Here
TTITLE12=Harper  Valley PTA 
EXTD=
EXTT0=
EXTT1=
EXTT2=
EXTT3=
EXTT4=
EXTT5=
EXTT6=
EXTT7=
EXTT8=
EXTT9=
EXTT10=
EXTT11=
EXTT12=
PLAYORDER=
